# xmcd
#
# Track frame offsets:
#	150
#	16497
#	30785
#	51945
#	66526
#	85481
#	104300
#	123823
#	139694
#	157406
#	175372
#	191931
#
# Disc length: 2727 seconds
#
# Revision: 4
# Processed by: cddbd v1.5.2PL0 Copyright (c) Steve Scherf et al.
# Submitted via: audiograbber 1.83.01
#
DISCID=ab0aa50c
DTITLE=Frank Biner - Frankie B. Is Back In Town
DYEAR=1998
DGENRE=Blues
TTITLE0=Like A Kid In A Candystore
TTITLE1=Frankie B. Is Back In Town
TTITLE2=It´s Nice To See You Again
TTITLE3=Barely Hangin' In
TTITLE4=I Plead Insanitiy
TTITLE5=Try A Little Tenderness
TTITLE6=8 Miles From Oakland
TTITLE7=Diamond Billy's Uptown Bar-B-Que
TTITLE8=I'm Guilty (Of Loving You)
TTITLE9=Little Money
TTITLE10=Ain't None So Blind
TTITLE11=Let's Twist
EXTD=
EXTT0=
EXTT1=
EXTT2=
EXTT3=
EXTT4=
EXTT5=
EXTT6=
EXTT7=
EXTT8=
EXTT9=
EXTT10=
EXTT11=
PLAYORDER=
